<?xml version="1.0" encoding="UTF-8"?>
<svg xmlns="http://www.w3.org/2000/svg" xmlns:xlink="http://www.w3.org/1999/xlink" width="75pt" height="75pt" viewBox="0 0 150 150" version="1.1">
<g id="surface1">
<path style=" stroke:none;fill-rule:nonzero;fill:rgb(99.607843%,89.411765%,35.294118%);fill-opacity:1;" d="M 108.171875 147.804688 L 41.546875 147.695312 L 41.558594 138.6875 C 41.589844 120.289062 56.53125 105.398438 74.929688 105.429688 C 93.328125 105.460938 108.21875 120.402344 108.1875 138.800781 Z M 108.171875 147.804688 "/>
<path style=" stroke:none;fill-rule:nonzero;fill:rgb(99.607843%,83.137255%,0.784314%);fill-opacity:1;" d="M 108.1875 138.800781 L 108.171875 147.808594 L 102.339844 147.796875 L 102.355469 138.789062 C 102.367188 129.59375 98.65625 121.257812 92.632812 115.21875 C 87.261719 109.824219 80.046875 106.261719 72.011719 105.554688 C 72.972656 105.46875 73.945312 105.429688 74.929688 105.429688 C 84.128906 105.445312 92.453125 109.1875 98.46875 115.226562 C 104.488281 121.265625 108.203125 129.601562 108.1875 138.800781 Z M 108.1875 138.800781 "/>
<path style=" stroke:none;fill-rule:nonzero;fill:rgb(84.705882%,54.117647%,33.333333%);fill-opacity:1;" d="M 74.910156 116.304688 C 71.277344 116.296875 68.335938 113.347656 68.34375 109.714844 L 68.367188 94.546875 L 81.527344 94.566406 L 81.503906 109.734375 C 81.496094 113.371094 78.546875 116.308594 74.910156 116.304688 Z M 74.910156 116.304688 "/>
<path style=" stroke:none;fill-rule:nonzero;fill:rgb(77.254902%,47.843137%,26.666667%);fill-opacity:1;" d="M 81.527344 94.566406 L 81.503906 109.734375 C 81.496094 113.371094 78.546875 116.3125 74.910156 116.304688 C 74.09375 116.304688 73.308594 116.152344 72.585938 115.878906 C 74.4375 114.71875 75.664062 112.664062 75.667969 110.320312 L 75.695312 94.558594 Z M 81.527344 94.566406 "/>
<path style=" stroke:none;fill-rule:nonzero;fill:rgb(84.705882%,54.117647%,33.333333%);fill-opacity:1;" d="M 107.234375 72.011719 L 113.121094 72.023438 C 118.097656 72.03125 122.140625 68.003906 122.148438 63.027344 C 122.15625 58.050781 118.128906 54.007812 113.152344 54 L 107.265625 53.988281 Z M 107.234375 72.011719 "/>
<path style=" stroke:none;fill-rule:nonzero;fill:rgb(77.254902%,47.843137%,26.666667%);fill-opacity:1;" d="M 122.148438 63.027344 C 122.140625 68 118.101562 72.03125 113.121094 72.023438 L 109.230469 72.015625 C 113.308594 70.902344 116.308594 67.175781 116.316406 62.746094 C 116.320312 60.085938 115.246094 57.679688 113.507812 55.933594 C 112.710938 55.136719 111.777344 54.476562 110.738281 53.996094 L 113.152344 54 C 115.644531 54.003906 117.890625 55.015625 119.519531 56.648438 C 121.148438 58.285156 122.152344 60.539062 122.148438 63.027344 Z M 122.148438 63.027344 "/>
<path style=" stroke:none;fill-rule:nonzero;fill:rgb(77.254902%,47.843137%,26.666667%);fill-opacity:1;" d="M 42.734375 71.90625 L 36.847656 71.894531 C 31.871094 71.886719 27.84375 67.847656 27.851562 62.871094 C 27.859375 57.894531 31.902344 53.863281 36.878906 53.875 L 42.765625 53.882812 Z M 42.734375 71.90625 "/>
<path style=" stroke:none;fill-rule:nonzero;fill:rgb(84.705882%,54.117647%,33.333333%);fill-opacity:1;" d="M 74.9375 100.800781 C 55.703125 100.769531 40.132812 85.152344 40.164062 65.914062 L 40.207031 40.640625 L 75.058594 26.371094 L 109.863281 40.753906 L 109.824219 66.03125 C 109.792969 85.265625 94.171875 100.832031 74.9375 100.800781 Z M 74.9375 100.800781 "/>
<path style=" stroke:none;fill-rule:nonzero;fill:rgb(77.254902%,47.843137%,26.666667%);fill-opacity:1;" d="M 109.867188 40.753906 L 109.824219 66.03125 C 109.792969 85.265625 94.171875 100.832031 74.9375 100.800781 C 72.640625 100.796875 70.402344 100.570312 68.234375 100.140625 C 68.449219 100.148438 68.667969 100.152344 68.886719 100.152344 C 88.121094 100.183594 103.738281 84.617188 103.769531 65.382812 L 103.816406 38.253906 Z M 109.867188 40.753906 "/>
<path style=" stroke:none;fill-rule:nonzero;fill:rgb(35.294118%,35.294118%,35.294118%);fill-opacity:1;" d="M 75.101562 2.195312 C 55.863281 2.164062 40.246094 17.730469 40.214844 36.964844 L 40.179688 56.664062 C 40.179688 56.664062 46.222656 49.058594 49.6875 42.855469 C 50.359375 41.648438 51.625 40.898438 53.003906 40.898438 L 97.066406 40.972656 C 98.449219 40.972656 99.710938 41.730469 100.378906 42.9375 C 103.824219 49.15625 109.839844 56.777344 109.839844 56.777344 L 109.871094 37.082031 C 109.902344 17.84375 94.335938 2.226562 75.101562 2.195312 Z M 75.101562 2.195312 "/>
<path style=" stroke:none;fill-rule:nonzero;fill:rgb(26.666667%,26.666667%,26.666667%);fill-opacity:1;" d="M 109.871094 37.082031 L 109.839844 56.777344 C 109.839844 56.777344 106.796875 52.921875 103.800781 48.460938 L 103.824219 35.101562 C 103.847656 20.753906 95.191406 8.414062 82.804688 3.0625 C 98.328125 6.59375 109.898438 20.492188 109.871094 37.082031 Z M 109.871094 37.082031 "/>
<path style=" stroke:none;fill-rule:nonzero;fill:rgb(95.294118%,94.117647%,95.294118%);fill-opacity:1;" d="M 98.5625 58.683594 C 98.5625 63.808594 94.410156 67.960938 89.289062 67.960938 C 84.164062 67.960938 80.015625 63.808594 80.015625 58.683594 C 80.015625 53.5625 84.164062 49.410156 89.289062 49.410156 C 94.410156 49.410156 98.5625 53.5625 98.5625 58.683594 Z M 98.5625 58.683594 "/>
<path style=" stroke:none;fill-rule:nonzero;fill:rgb(88.627451%,87.058824%,88.627451%);fill-opacity:1;" d="M 98.5625 58.6875 C 98.5625 63.804688 94.410156 67.960938 89.289062 67.960938 C 87.519531 67.960938 85.875 67.46875 84.46875 66.613281 C 89.105469 66.097656 92.710938 62.164062 92.710938 57.394531 C 92.710938 54.039062 90.929688 51.097656 88.257812 49.46875 C 88.59375 49.433594 88.941406 49.414062 89.289062 49.414062 C 94.410156 49.414062 98.5625 53.5625 98.5625 58.6875 Z M 98.5625 58.6875 "/>
<path style=" stroke:none;fill-rule:nonzero;fill:rgb(48.627451%,63.137255%,69.411765%);fill-opacity:1;" d="M 57.40625 75.140625 C 57.363281 75.117188 57.320312 75.097656 57.28125 75.074219 C 56.597656 74.714844 55.824219 75.375 56.066406 76.109375 C 57.632812 80.867188 60.375 84.066406 63.292969 86.21875 C 70.222656 91.320312 79.777344 91.320312 86.707031 86.21875 C 89.625 84.066406 92.367188 80.867188 93.933594 76.109375 C 94.175781 75.375 93.402344 74.714844 92.71875 75.074219 C 92.675781 75.097656 92.636719 75.117188 92.59375 75.140625 C 81.582031 80.902344 68.417969 80.902344 57.40625 75.140625 Z M 57.40625 75.140625 "/>
<path style=" stroke:none;fill-rule:nonzero;fill:rgb(40.392157%,55.294118%,59.607843%);fill-opacity:1;" d="M 93.929688 76.109375 C 92.367188 80.867188 89.625 84.070312 86.707031 86.214844 C 82.488281 89.324219 77.292969 90.539062 72.316406 89.863281 C 75.511719 89.429688 78.625 88.214844 81.335938 86.214844 C 84.050781 84.21875 86.609375 81.3125 88.210938 77.089844 C 89.703125 76.539062 91.167969 75.886719 92.59375 75.140625 C 92.636719 75.117188 92.675781 75.09375 92.71875 75.074219 C 93.40625 74.710938 94.175781 75.375 93.929688 76.109375 Z M 93.929688 76.109375 "/>
<path style=" stroke:none;fill-rule:nonzero;fill:rgb(93.333333%,38.039216%,38.039216%);fill-opacity:1;" d="M 83.652344 78.464844 L 83.652344 86.15625 C 83.652344 86.652344 83.609375 87.144531 83.523438 87.621094 C 83.492188 87.808594 83.453125 87.996094 83.40625 88.175781 C 82.503906 91.980469 79.082031 94.804688 75 94.804688 C 70.917969 94.804688 67.496094 91.980469 66.59375 88.175781 C 66.546875 87.996094 66.507812 87.808594 66.476562 87.621094 C 66.390625 87.144531 66.351562 86.652344 66.351562 86.15625 L 66.351562 78.464844 C 72.035156 79.792969 77.964844 79.792969 83.652344 78.464844 Z M 83.652344 78.464844 "/>
<path style=" stroke:none;fill-rule:nonzero;fill:rgb(91.372549%,26.666667%,26.666667%);fill-opacity:1;" d="M 83.652344 78.464844 L 83.652344 86.15625 C 83.652344 86.820312 83.5625 87.53125 83.40625 88.175781 C 82.503906 91.980469 79.082031 94.804688 75 94.804688 C 73.839844 94.804688 72.738281 94.578125 71.730469 94.167969 C 74.535156 93.070312 76.679688 90.648438 77.386719 87.667969 C 77.4375 87.472656 77.476562 87.273438 77.511719 87.070312 C 77.605469 86.5625 77.648438 86.027344 77.648438 85.492188 L 77.648438 79.371094 C 79.664062 79.226562 81.671875 78.925781 83.652344 78.464844 Z M 83.652344 78.464844 "/>
<path style=" stroke:none;fill-rule:nonzero;fill:rgb(0%,0%,0%);fill-opacity:1;" d="M 113.15625 51.804688 L 112.042969 51.804688 L 112.066406 37.085938 C 112.097656 16.671875 95.519531 0.0351562 75.105469 0 C 75.082031 0 75.0625 0 75.042969 0 C 57.546875 0 42.296875 12.410156 38.777344 29.53125 C 38.535156 30.714844 39.300781 31.875 40.484375 32.121094 C 41.671875 32.363281 42.832031 31.601562 43.078125 30.414062 C 46.179688 15.324219 59.617188 4.386719 75.042969 4.386719 L 75.097656 4.386719 C 93.089844 4.417969 107.707031 19.082031 107.675781 37.078125 L 107.65625 50.171875 C 105.867188 47.664062 103.816406 44.613281 102.296875 41.875 C 101.242188 39.96875 99.238281 38.78125 97.070312 38.777344 L 53.007812 38.703125 C 53.003906 38.703125 53 38.703125 53 38.703125 C 50.835938 38.703125 48.832031 39.882812 47.769531 41.785156 C 46.246094 44.515625 44.183594 47.558594 42.386719 50.0625 L 42.386719 49.988281 L 42.402344 40.089844 C 42.402344 38.878906 41.421875 37.894531 40.210938 37.890625 C 40.207031 37.890625 40.207031 37.890625 40.207031 37.890625 C 38.996094 37.890625 38.015625 38.871094 38.011719 40.082031 L 38.011719 51.679688 L 36.859375 51.679688 C 33.875 51.679688 31.066406 52.839844 28.953125 54.949219 C 26.832031 57.058594 25.660156 59.871094 25.65625 62.867188 C 25.644531 69.042969 30.664062 74.078125 36.84375 74.089844 L 38.890625 74.09375 C 40.386719 80.859375 43.757812 87.078125 48.769531 92.109375 C 53.636719 96.992188 59.628906 100.347656 66.160156 101.9375 L 66.15625 104.316406 C 60.027344 105.855469 54.402344 109.015625 49.808594 113.59375 C 43.089844 120.289062 39.382812 129.203125 39.367188 138.6875 L 39.351562 147.691406 C 39.347656 148.273438 39.578125 148.832031 39.992188 149.242188 C 40.402344 149.65625 40.960938 149.886719 41.539062 149.890625 L 75.980469 149.945312 L 75.984375 149.945312 C 77.195312 149.945312 78.175781 148.964844 78.179688 147.753906 C 78.179688 146.542969 77.199219 145.558594 75.988281 145.558594 L 43.742188 145.503906 L 43.753906 138.691406 C 43.777344 124.578125 53.242188 112.652344 66.148438 108.878906 L 66.148438 109.710938 C 66.144531 112.054688 67.050781 114.257812 68.707031 115.917969 C 70.359375 117.578125 72.5625 118.496094 74.90625 118.5 L 74.921875 118.5 C 79.753906 118.5 83.6875 114.570312 83.695312 109.738281 L 83.695312 108.890625 C 88.644531 110.34375 93.171875 113.023438 96.914062 116.777344 C 102.78125 122.664062 106.007812 130.484375 105.992188 138.796875 L 105.980469 145.609375 L 86.054688 145.574219 L 86.050781 145.574219 C 84.84375 145.574219 83.859375 146.554688 83.859375 147.765625 C 83.855469 148.976562 84.835938 149.960938 86.046875 149.960938 L 108.171875 150 C 108.753906 150 109.3125 149.769531 109.722656 149.359375 C 110.132812 148.949219 110.367188 148.390625 110.367188 147.808594 L 110.382812 138.804688 C 110.398438 129.320312 106.71875 120.394531 100.023438 113.679688 C 95.445312 109.085938 89.832031 105.90625 83.707031 104.34375 L 83.710938 101.957031 C 97.292969 98.667969 107.976562 87.867188 111.089844 74.210938 L 113.121094 74.214844 L 113.140625 74.214844 C 119.308594 74.214844 124.332031 69.203125 124.34375 63.027344 C 124.355469 56.851562 119.335938 51.816406 113.15625 51.804688 Z M 36.851562 69.699219 C 33.09375 69.695312 30.039062 66.632812 30.046875 62.871094 C 30.046875 61.050781 30.761719 59.339844 32.050781 58.054688 C 33.335938 56.773438 35.046875 56.066406 36.863281 56.066406 L 36.875 56.066406 L 38.011719 56.070312 L 38.011719 65.910156 C 38.011719 67.1875 38.074219 68.453125 38.195312 69.703125 Z M 79.308594 109.730469 C 79.304688 112.148438 77.335938 114.109375 74.921875 114.109375 L 74.914062 114.109375 C 72.496094 114.105469 70.53125 112.136719 70.535156 109.71875 L 70.546875 102.730469 C 71.992188 102.902344 73.457031 102.992188 74.933594 102.996094 L 74.996094 102.996094 C 76.457031 102.996094 77.902344 102.910156 79.320312 102.742188 Z M 107.628906 66.027344 C 107.597656 84.003906 92.964844 98.609375 74.996094 98.609375 L 74.941406 98.609375 C 66.222656 98.59375 58.035156 95.183594 51.878906 89.011719 C 45.726562 82.835938 42.34375 74.636719 42.359375 65.917969 L 42.375 57.421875 C 43.886719 55.476562 48.621094 49.265625 51.601562 43.925781 C 51.890625 43.410156 52.421875 43.09375 53 43.09375 L 97.0625 43.167969 C 97.640625 43.167969 98.175781 43.488281 98.460938 44 C 101.421875 49.351562 106.136719 55.578125 107.644531 57.53125 Z M 113.136719 69.828125 L 113.125 69.828125 L 111.816406 69.824219 C 111.949219 68.578125 112.015625 67.3125 112.015625 66.035156 L 112.035156 56.191406 L 113.148438 56.191406 C 116.90625 56.199219 119.960938 59.261719 119.953125 63.019531 C 119.949219 66.777344 116.890625 69.828125 113.136719 69.828125 Z M 113.136719 69.828125 "/>
<path style=" stroke:none;fill-rule:nonzero;fill:rgb(0%,0%,0%);fill-opacity:1;" d="M 54.546875 62.984375 C 55.640625 63.503906 56.949219 63.039062 57.46875 61.945312 C 58.152344 60.511719 59.59375 59.585938 61.132812 59.585938 C 62.703125 59.585938 64.148438 60.507812 64.8125 61.929688 C 65.183594 62.726562 65.976562 63.195312 66.800781 63.195312 C 67.113281 63.195312 67.429688 63.132812 67.726562 62.992188 C 68.824219 62.476562 69.300781 61.171875 68.789062 60.074219 C 67.40625 57.113281 64.402344 55.199219 61.132812 55.199219 C 57.910156 55.199219 54.917969 57.105469 53.507812 60.058594 C 52.988281 61.152344 53.453125 62.460938 54.546875 62.984375 Z M 54.546875 62.984375 "/>
<path style=" stroke:none;fill-rule:nonzero;fill:rgb(0%,0%,0%);fill-opacity:1;" d="M 89.289062 47.21875 C 82.964844 47.21875 77.820312 52.363281 77.820312 58.683594 C 77.820312 65.007812 82.964844 70.152344 89.289062 70.152344 C 95.613281 70.152344 100.757812 65.007812 100.757812 58.683594 C 100.757812 52.363281 95.613281 47.21875 89.289062 47.21875 Z M 89.289062 65.765625 C 85.382812 65.765625 82.207031 62.589844 82.207031 58.683594 C 82.207031 54.78125 85.382812 51.605469 89.289062 51.605469 C 93.191406 51.605469 96.367188 54.78125 96.367188 58.683594 C 96.367188 62.589844 93.191406 65.765625 89.289062 65.765625 Z M 89.289062 65.765625 "/>
<path style=" stroke:none;fill-rule:nonzero;fill:rgb(0%,0%,0%);fill-opacity:1;" d="M 91.640625 58.683594 C 91.640625 59.984375 90.585938 61.035156 89.289062 61.035156 C 87.988281 61.035156 86.9375 59.984375 86.9375 58.683594 C 86.9375 57.386719 87.988281 56.335938 89.289062 56.335938 C 90.585938 56.335938 91.640625 57.386719 91.640625 58.683594 Z M 91.640625 58.683594 "/>
<path style=" stroke:none;fill-rule:nonzero;fill:rgb(0%,0%,0%);fill-opacity:1;" d="M 95.085938 73.5 C 94.132812 72.695312 92.800781 72.550781 91.6875 73.136719 L 91.574219 73.195312 C 88.847656 74.625 85.976562 75.671875 83.042969 76.351562 C 82.746094 76.417969 82.449219 76.484375 82.148438 76.546875 C 82.148438 76.546875 82.144531 76.546875 82.144531 76.546875 C 77.148438 77.558594 71.917969 77.492188 66.949219 76.347656 C 64.019531 75.671875 61.152344 74.625 58.425781 73.199219 L 58.304688 73.132812 C 57.199219 72.550781 55.867188 72.695312 54.914062 73.5 C 53.957031 74.3125 53.589844 75.605469 53.984375 76.796875 C 55.507812 81.429688 58.203125 85.191406 61.992188 87.984375 C 62.875 88.632812 63.800781 89.207031 64.753906 89.703125 C 66.242188 94.046875 70.316406 97 75 97 C 79.683594 97 83.753906 94.050781 85.242188 89.707031 C 86.199219 89.207031 87.125 88.632812 88.007812 87.984375 C 91.796875 85.191406 94.492188 81.429688 96.015625 76.796875 C 96.410156 75.605469 96.042969 74.3125 95.085938 73.5 Z M 64.15625 84.109375 C 62.214844 82.582031 60.644531 80.722656 59.476562 78.535156 C 61.007812 79.179688 62.570312 79.71875 64.15625 80.160156 Z M 81.457031 86.15625 C 81.457031 89.683594 78.523438 92.609375 75 92.609375 C 71.472656 92.609375 68.542969 89.679688 68.542969 86.15625 L 68.542969 81.132812 C 72.808594 81.820312 77.191406 81.820312 81.457031 81.132812 C 81.457031 81.132812 81.457031 86.152344 81.457031 86.15625 Z M 85.84375 84.109375 L 85.84375 80.164062 C 87.429688 79.71875 88.992188 79.179688 90.523438 78.535156 C 89.355469 80.722656 87.789062 82.585938 85.84375 84.109375 Z M 85.84375 84.109375 "/>
<path style=" stroke:none;fill-rule:nonzero;fill:rgb(0%,0%,0%);fill-opacity:1;" d="M 26.085938 40.203125 C 27.273438 40.203125 28.25 39.257812 28.277344 38.0625 C 28.304688 36.851562 27.347656 35.847656 26.136719 35.816406 L 14.386719 35.539062 L 19.273438 30.113281 C 19.898438 29.421875 20.015625 28.414062 19.574219 27.597656 L 14.886719 18.945312 L 25.847656 17.609375 C 26.460938 17.535156 27.015625 17.207031 27.371094 16.703125 C 27.730469 16.203125 27.859375 15.570312 27.730469 14.96875 L 26.417969 8.898438 L 34.5 13.710938 C 35.539062 14.328125 36.886719 13.988281 37.507812 12.945312 C 38.128906 11.90625 37.785156 10.558594 36.746094 9.9375 L 24.332031 2.546875 C 23.582031 2.101562 22.640625 2.140625 21.929688 2.652344 C 21.222656 3.160156 20.882812 4.042969 21.066406 4.894531 L 22.933594 13.542969 L 11.15625 14.976562 C 10.4375 15.066406 9.804688 15.503906 9.472656 16.148438 C 9.140625 16.792969 9.148438 17.5625 9.492188 18.199219 L 14.976562 28.328125 L 7.925781 36.148438 C 7.351562 36.785156 7.203125 37.699219 7.542969 38.488281 C 7.878906 39.273438 8.648438 39.792969 9.503906 39.8125 L 26.03125 40.203125 C 26.050781 40.203125 26.066406 40.203125 26.085938 40.203125 Z M 26.085938 40.203125 "/>
<path style=" stroke:none;fill-rule:nonzero;fill:rgb(0%,0%,0%);fill-opacity:1;" d="M 141.632812 53.097656 L 136.339844 49.679688 L 141.660156 42.882812 C 142.109375 42.3125 142.246094 41.558594 142.023438 40.863281 C 141.804688 40.171875 141.253906 39.636719 140.558594 39.429688 L 132.355469 36.988281 L 131.953125 29.203125 C 131.90625 28.347656 131.367188 27.59375 130.570312 27.277344 C 129.773438 26.960938 128.867188 27.136719 128.246094 27.730469 L 118.992188 36.554688 C 118.113281 37.390625 118.082031 38.78125 118.917969 39.65625 C 119.753906 40.535156 121.140625 40.566406 122.019531 39.730469 L 127.816406 34.203125 L 128.054688 38.765625 C 128.101562 39.691406 128.726562 40.488281 129.617188 40.753906 L 136.21875 42.714844 L 131.402344 48.867188 C 131.019531 49.355469 130.863281 49.976562 130.964844 50.585938 C 131.066406 51.195312 131.421875 51.730469 131.941406 52.066406 L 135.019531 54.050781 L 129.074219 55.558594 C 127.898438 55.859375 127.1875 57.050781 127.484375 58.226562 C 127.738281 59.21875 128.628906 59.882812 129.609375 59.882812 C 129.789062 59.882812 129.96875 59.859375 130.152344 59.8125 L 140.984375 57.066406 C 141.828125 56.851562 142.46875 56.15625 142.609375 55.292969 C 142.75 54.433594 142.367188 53.570312 141.632812 53.097656 Z M 141.632812 53.097656 "/>
</g>
</svg>
